<?xml version="1.0" encoding="UTF-8"?>
<!DOCTYPE svg PUBLIC "-//W3C//DTD SVG 1.1//EN" "http://www.w3.org/Graphics/SVG/1.1/DTD/svg11.dtd">
<!-- Creator: CorelDRAW 2021.5 -->
<svg xmlns="http://www.w3.org/2000/svg" xml:space="preserve" width="91.4398mm" height="91.4398mm" version="1.1" style="shape-rendering:geometricPrecision; text-rendering:geometricPrecision; image-rendering:optimizeQuality; fill-rule:evenodd; clip-rule:evenodd"
viewBox="0 0 3403.84 3403.84"
 xmlns:xlink="http://www.w3.org/1999/xlink"
 xmlns:xodm="http://www.corel.com/coreldraw/odm/2003">
 <defs>
  <style type="text/css">
   <![CDATA[
    .fil0 {fill:none}
    .fil3 {fill:white}
    .fil2 {fill:white;fill-rule:nonzero}
    .fil1 {fill:url(#id0)}
   ]]>
  </style>
  <radialGradient id="id0" gradientUnits="userSpaceOnUse" gradientTransform="matrix(2.79323 -0 -0 2.79323 -560 -5443)" cx="312.02" cy="3035.09" r="1418.27" fx="312.02" fy="3035.09">
   <stop offset="0" style="stop-opacity:1; stop-color:#FF8100"/>
   <stop offset="0.188235" style="stop-opacity:1; stop-color:#FF7209"/>
   <stop offset="0.321569" style="stop-opacity:1; stop-color:#F55E16"/>
   <stop offset="0.478431" style="stop-opacity:1; stop-color:#D92938"/>
   <stop offset="1" style="stop-opacity:1; stop-color:#9100FF"/>
  </radialGradient>
 </defs>
 <g id="Layer_x0020_1">
  <metadata id="CorelCorpID_0Corel-Layer"/>
  <g id="_2506572179680">
   <rect id="Artboard10" class="fil0" width="3403.84" height="3403.84"/>
   <path class="fil1" d="M3120.18 992.78c0,-391.58 -317.55,-709.13 -709.13,-709.13 -433.14,0 -985.13,0 -1418.27,0 -391.58,0 -709.13,317.55 -709.13,709.13 0,433.14 0,985.13 0,1418.27 0,391.58 317.55,709.13 709.13,709.13 433.14,0 985.13,0 1418.27,0 391.58,0 709.13,-317.55 709.13,-709.13 0,-433.14 0,-985.13 0,-1418.27z"/>
   <path class="fil2" d="M2121.44 709.84c296.56,2.84 569.57,257.41 572.55,572.55 0.99,279.68 0.99,559.36 0,839.05 -2.84,295.42 -257.41,569.57 -572.55,572.55 -279.68,0.99 -559.36,0.99 -839.05,0 -296.7,-2.84 -569.57,-257.41 -572.55,-572.55 -0.99,-279.68 -0.99,-559.36 0,-839.05 2.7,-296.84 256.71,-569.57 572.55,-572.55 279.68,-0.99 559.36,-0.99 839.05,0zm-835.22 134.03c-230.18,0.71 -440.09,200.26 -442.36,439.38 -0.85,279.12 -0.85,558.23 0,837.34 2.13,227.63 196.86,437.11 439.38,439.38 279.12,0.85 558.23,0.85 837.34,0 228.2,-2.13 437.11,-196.86 439.38,-439.38 0.85,-279.12 0.85,-558.23 0,-837.34 -2.13,-229.19 -200.68,-437.11 -439.38,-439.38 -278.12,-0.85 -556.24,0 -834.37,0z"/>
   <path class="fil2" d="M1705.32 1205.53c229.48,2.13 443.35,179.13 485.33,405.91 29.93,161.68 -26.52,336.98 -145.66,450.73 -132.61,126.23 -337.83,171.33 -513.7,106.94 -196.57,-71.91 -334.85,-279.12 -325.63,-489.02 11.2,-250.75 232.74,-473.7 496.25,-474.55 1.14,0 2.27,0 3.4,0zm-5.67 134.31c-163.81,1.56 -318.26,125.8 -352.3,287.2 -34.46,163.24 59.43,344.36 213.59,409.45 168.35,71.2 385.77,-8.65 467.03,-174.87 84.1,-171.75 4.82,-405.06 -172.75,-488.03 -48.36,-22.55 -102.12,-33.9 -155.59,-33.76l0 0z"/>
   <path class="fil3" d="M2340.14 1166.81c0,-27.37 -10.92,-53.61 -30.21,-72.9 -19.29,-19.29 -45.53,-30.21 -72.9,-30.21 -2.13,0 -4.4,0 -6.53,0 -27.37,0 -53.61,10.92 -72.9,30.21 -19.29,19.29 -30.21,45.53 -30.21,72.9 0,1.14 0,2.13 0,3.26 0,28.22 11.2,55.31 31.2,75.17 19.86,20 46.94,31.2 75.17,31.2 0,0 0,0 0,0 58.71,0 106.37,-47.66 106.37,-106.37 0,-1.14 0,-2.13 0,-3.26l-0 0z"/>
  </g>
 </g>
</svg>
